$MeshFormat
4.1 0 8
$EndMeshFormat
$PhysicalNames
2
1 1 "Boundary"
2 2 "Domain"
$EndPhysicalNames
$Entities
0 1 1 0
1 -0.5 0.0 0.0 4.0 3.5 0.0 1 1 0
1 -0.5 0.0 0.0 4.0 3.5 0.0 1 2 1 1
$EndEntities
$Nodes
2 15 1 15
1 1 0 10
1
2
3
4
5
6
7
8
9
10
 1.0  0.0  0.0
 2.5  0.0  0.0
 3.8  0.7  0.0
 4.0  1.8  0.0
 3.2  3.0  0.0
 2.0  3.5  0.0
 0.8  3.2  0.0
-0.2  2.3  0.0
-0.5  1.2  0.0
 0.2  0.3  0.0
2 1 0 5
11
12
13
14
15
 1.5  0.8  0.0
 2.8  1.2  0.0
 3.0  2.2  0.0
 1.8  2.5  0.0
 0.8  1.8  0.0
$EndNodes
$Elements
2 28 1 28
1 1 1 10
1   1  2
2   2  3
3   3  4
4   4  5
5   5  6
6   6  7
7   7  8
8   8  9
9   9 10
10 10  1
2 1 2 18
11  10  1 11
12   1  2 11
13   2 12 11
14   2  3 12
15   3  4 12
16   4 13 12
17   4  5 13
18   5  6 13
19   6 14 13
20   6  7 14
21   7 15 14
22   7  8 15
23   8  9 15
24   9 10 15
25  10 11 15
26  11 12 14
27  12 13 14
28  11 14 15
$EndElements
